<svg version="1.1" xmlns="http://www.w3.org/2000/svg" xmlns:xlink="http://www.w3.org/1999/xlink" x="0px" y="0px" viewBox="0 0 1000 1000" enable-background="new 0 0 1000 1000" xml:space="preserve">
<metadata> Svg Vector Icons : http://www.onlinewebfonts.com/icon </metadata>
<g><g transform="translate(0.000000,338.000000) scale(0.100000,-0.100000)"><path d="M100-1620v-3253.8h4900h4900V-1620v3253.8H5000H100V-1620z M9591.9,555.6v-789.4H4990.4H388.8v789.4V1345h4601.6h4601.6V555.6z M9591.9-1610.4v-1030.1H4990.4H388.8v1030.1v1030.1h4601.6h4601.6V-1610.4z M9591.9-3776.4v-789.4H4990.4H388.8v789.4v789.4h4601.6h4601.6V-3776.4z"/><path d="M4984.6-732.4c-7.7-67.4-13.5-163.7-15.4-211.8c-1.9-127.1-32.7-194.5-34.7-77c-1.9,61.6-21.2,127.1-59.7,198.3c-32.7,65.5-52,121.3-44.3,142.5c11.5,28.9,9.6,28.9-19.3,5.8c-40.4-32.7-40.4-65.5,0-142.5c32.7-59.7,65.5-321.5,42.4-321.5c-7.7,0-23.1,28.9-38.5,63.5c-61.6,156-173.3,383.1-181,375.4c-5.8-3.8,25-111.7,67.4-236.8c42.4-127.1,77-233,77-236.8c0-28.9-61.6,50-94.3,121.3c-25,53.9-69.3,105.9-117.4,136.7c-46.2,30.8-77,67.4-77,88.6c0,21.2-7.7,30.8-19.3,25c-38.5-23.1-19.3-80.9,50.1-146.3c55.8-53.9,190.6-286.9,165.6-286.9c-3.9,0-86.6,73.2-182.9,163.7c-98.2,90.5-184.8,163.7-194.5,163.7c-9.6,0,42.4-67.4,115.5-148.3c71.2-82.8,142.5-165.6,157.9-182.9c50.1-59.7-5.8-36.6-78.9,32.7c-48.1,44.3-98.2,71.2-150.2,78.9c-44.3,7.7-96.3,28.9-117.4,50.1c-21.2,21.2-34.7,25-34.7,11.5c0-44.3,28.9-71.2,105.9-104c42.4-17.3,113.6-65.5,157.9-105.9c46.2-42.3,90.5-75.1,102-75.1c9.6,0,19.3-7.7,19.3-17.3s-109.7,25-244.5,77c-134.8,52-248.4,90.5-252.2,84.7c-3.9-3.9,94.3-59.7,219.5-125.2c182.9-92.4,213.7-113.6,152.1-104c-42.4,7.7-142.5,13.5-221.4,15.4c-78.9,0-156,9.6-167.5,17.3c-13.5,9.6-25,7.7-25,0c0-40.4,53.9-63.5,146.3-63.5c53.9,0,130.9-13.5,167.5-28.9c38.5-15.4,96.3-28.9,129-28.9c30.8,0,57.8-7.7,57.8-19.3s-78.9-19.3-196.4-21.2c-109.7,0-233-5.8-275.3-15.4c-73.2-13.5-71.2-13.5,57.8-27c75.1-7.7,175.2-13.5,225.3-13.5c50.1,0,96.3-7.7,102-19.3c7.7-11.5-23.1-19.2-80.9-19.2c-67.4,0-119.4-15.4-186.8-55.8c-52-30.8-105.9-52-121.3-46.2c-13.5,5.8-25,1.9-25-9.6c0-34.6,69.3-38.5,136.7-7.7c36.6,15.4,121.3,34.6,190.6,42.4c69.3,7.7,140.5,19.3,159.8,27c17.3,9.6,32.7,7.7,32.7,0c0-9.6-50.1-38.5-111.7-65.5c-244.5-104-392.8-175.2-385.1-182.9c3.8-5.8,111.7,25,236.8,67.4c127.1,42.4,233,77,238.7,77c30.8,0-73.2-78.9-125.1-96.3c-42.4-15.4-86.6-52-125.1-107.8c-30.8-46.2-71.2-84.7-86.6-84.7c-15.4,0-23.1-7.7-17.3-19.2c23.1-36.6,71.2-19.3,130.9,50c34.7,38.5,105.9,88.6,157.9,111.7c53.9,25,107.8,57.8,123.2,75.1c13.5,19.2,34.7,32.7,44.3,32.7c11.5,0-67.4-94.4-175.2-209.9c-105.9-115.5-194.5-215.6-194.5-223.3c0-7.7,82.8,57.8,182.9,144.4c188.7,161.7,231,177.1,117.4,40.4c-34.7-42.3-71.2-109.7-78.9-150.2c-7.7-40.4-27-88.6-42.4-105.9c-28.9-30.8-28.9-34.6,0-34.6c34.7,0,78.9,59.7,100.1,134.8c7.7,27,46.2,82.8,86.6,125.1c42.4,42.4,84.7,102,96.3,132.9c11.6,30.8,25,52,28.9,46.2c5.8-5.8-32.7-125.1-86.6-265.7s-92.4-259.9-88.6-265.7c5.8-3.9,57.8,90.5,119.4,209.9c104,207.9,156,258,100.1,100.1c-13.5-40.4-25-140.5-25-221.4c0-142.5,1.9-146.3,34.7-115.5c28.9,25,32.7,48.1,23.1,113.6c-9.6,61.6-1.9,104,27,171.3c23.1,50.1,42.4,125.2,42.4,169.5c5.8,138.6,32.7-127.1,34.7-344.6c1.9-132.9,7.7-182.9,21.2-163.7c9.6,15.4,19.3,67.4,19.3,115.5c0,167.5,25,356.2,40.4,317.7c7.7-21.2,15.4-73.2,15.4-115.5c1.9-50,19.3-104,52-152.1c28.9-42.3,46.2-88.6,40.4-109.7c-5.8-25-1.9-36.6,11.5-30.8c40.4,13.5,38.5,71.3-5.8,171.4c-25,59.7-36.6,115.5-28.9,148.3c5.8,28.9-1.9,88.6-19.3,134.8c-15.4,46.2-25,88.6-21.2,94.3c9.6,7.7,36.6-50.1,179.1-375.4c38.5-88.6,73.2-155.9,78.9-152.1c3.8,5.8-23.1,107.8-61.6,231c-38.5,121.3-69.3,225.2-69.3,233c0,34.6,57.8-38.5,77-98.2c15.4-42.4,53.9-90.5,102-125.1c44.3-32.7,90.5-77,104-100.1c23.1-42.4,23.1-42.4,25,5.8c0,32.7-25,75.1-75.1,123.2c-42.3,40.4-80.8,96.3-88.6,125.1c-5.8,26.9-38.5,82.8-69.3,123.2c-32.7,38.5-52,71.2-46.2,71.2c7.7,0,105.9-86.6,217.6-192.5c111.7-104,207.9-186.8,213.7-182.9c3.8,5.8-52,77-123.2,157.9c-175.2,200.2-190.6,217.6-177.1,217.6c5.8,0,46.2-30.8,90.5-67.4c69.3-57.8,179-105.9,244.5-105.9c13.5,0,32.7-15.4,44.3-32.7c17.3-30.8,19.2-28.9,15.4,13.5c-3.9,36.6-25,53.9-86.6,77c-46.2,17.3-109.7,57.8-144.4,90.5s-98.2,77-140.5,98.2c-129,67.4-46.2,46.2,221.4-53.9c140.5-53.9,259.9-92.4,265.7-88.6c3.9,5.8-90.5,59.7-209.9,119.4c-134.8,69.3-206,113.6-184.8,119.4c17.3,3.9,71.2-7.7,119.4-26.9c69.3-25,100.1-28.9,167.5-11.6c52,13.5,92.4,13.5,115.5,1.9c19.3-11.6,34.6-11.6,34.6-1.9c0,40.4-55.8,59.7-155.9,57.8c-63.6-1.9-127.1,9.6-165.6,28.9c-34.7,19.3-94.3,32.7-134.8,34.7c-65.4,1.9-67.4,3.8-25,17.3c27,7.7,154,15.4,284.9,17.3c142.5,1.9,234.9,9.6,234.9,21.2s-38.5,19.3-82.8,19.3c-165.6,0-381.2,25-356.2,40.4c13.5,9.6,59.7,17.3,102,17.3c44.3,0,105.9,17.3,144.4,42.4c36.6,21.2,88.6,46.2,115.5,53.9c44.3,13.5,44.3,15.4,11.5,28.9c-21.2,9.6-61.6,5.8-96.3-9.6c-32.7-13.5-115.5-30.8-184.8-40.4c-69.3-7.7-144.4-21.2-167.5-27c-107.8-34.7-23.1,13.5,206,115.5c138.6,61.6,246.4,115.5,242.6,119.4c-5.8,7.7-333.1-86.6-433.2-125.2c-59.7-23.1,19.3,53.9,84.7,82.8c34.6,13.5,92.4,61.6,127.1,105.9c36.6,44.3,82.8,88.6,104,98.2c32.7,11.6,27,15.4-23.1,15.4c-48.1,1.9-73.2-11.6-111.7-63.5c-28.9-36.6-80.9-77-115.5-88.6c-36.6-11.6-88.6-38.5-115.5-61.6c-104-80.9-61.6-15.4,105.9,163.7c244.5,261.8,234.9,271.5-34.6,36.6c-77-69.3-144.4-119.4-150.2-115.5c-3.8,5.8,21.2,46.2,57.8,90.5c38.5,44.3,73.2,113.6,80.9,152.1c7.7,38.5,25,86.6,42.4,105.9c38.5,44.3,21.2,57.8-30.8,21.2c-23.1-15.4-50.1-59.7-61.6-100.1c-15.4-55.8-171.4-254.2-200.2-254.2c-3.8,0,34.7,107.8,84.7,240.7c52,132.8,86.6,240.7,78.9,240.7c-5.8,0-61.6-98.2-123.2-215.6c-90.5-177.1-107.8-202.2-98.2-140.5c7.7,42.4,13.5,138.6,15.4,211.8c0,75.1,9.6,146.3,19.2,159.8c11.6,19.3,5.8,25-19.2,19.3c-30.8-5.8-38.5-28.9-48.1-130.9c-5.8-69.3-27-173.3-46.2-231l-38.5-105.9L5025-936.5C5003.9-609.2,5001.9-597.6,4984.6-732.4z M5157.9-1263.8c104-61.6,159.8-165.6,159.8-298.4c0-109.8-28.9-179-109.7-254.1c-259.9-246.4-683.5,42.4-556.4,377.4C4730.4-1233,4965.3-1152.1,5157.9-1263.8z"/><path d="M4790.1-1404.4c-3.9-7.7,21.2-11.6,57.8-7.7c36.6,3.9,65.5,11.6,65.5,15.4C4913.4-1381.3,4799.8-1389,4790.1-1404.4z"/><path d="M5028.9-1396.7c0-3.9,28.9-11.6,65.5-15.4c36.6-3.8,61.6,0,57.8,7.7C5142.5-1389,5028.9-1381.3,5028.9-1396.7z"/><path d="M4822.9-1485.2c1.9-42.4,59.7-53.9,82.8-15.4c7.7,13.5,5.8,15.4-7.7,7.7c-13.5-7.7-23.1-1.9-23.1,15.4c0,17.3-11.6,30.8-27,30.8C4830.6-1446.7,4820.9-1464,4822.9-1485.2z"/><path d="M5067.4-1485.2c-15.4-30.8-15.4-38.5,7.7-38.5c30.8,0,55.8,52,30.8,67.4C5096.3-1450.6,5078.9-1464,5067.4-1485.2z"/><path d="M4909.5-1614.2c13.5-5.8,30.8-3.8,36.6,1.9c7.7,5.8-3.9,11.6-25,9.6C4899.9-1602.7,4894.1-1608.4,4909.5-1614.2z"/><path d="M5001.9-1623.9c5.8-9.6,19.3-11.5,28.9-5.8c25,17.3,21.2,23.1-11.5,23.1C5003.9-1606.5,4996.1-1614.2,5001.9-1623.9z"/><path d="M4903.7-1677.8c-7.7-11.5-7.7-27-1.9-32.7c5.8-7.7,11.6-1.9,11.6,9.6c0,13.5,27,23.1,59.7,23.1c52,0,57.8-3.9,36.6-28.9c-13.5-17.3-38.5-25-55.8-19.3c-23.1,9.6-25,5.8-9.6-9.6c27-27,107.8,15.4,98.2,48.1C5032.7-1660.4,4919.1-1652.7,4903.7-1677.8z"/></g></g>
</svg>