<svg width="16" height="16" viewBox="0 0 16 16" fill="none" xmlns="http://www.w3.org/2000/svg">
<path fill-rule="evenodd" clipRule="evenodd" d="M8 1.441C10.136 1.441 10.389 1.45 11.233 1.488C11.7402 1.49409 12.2425 1.58746 12.718 1.764C13.0658 1.89248 13.3802 2.09754 13.638 2.364C13.9045 2.62179 14.1095 2.93622 14.238 3.284C14.4145 3.75949 14.5079 4.26183 14.514 4.769C14.552 5.613 14.561 5.869 14.561 8.002C14.561 10.135 14.552 10.391 14.514 11.235C14.5079 11.7422 14.4145 12.2445 14.238 12.72C14.1052 13.0651 13.9015 13.3785 13.64 13.64C13.3785 13.9015 13.0651 14.1052 12.72 14.238C12.2445 14.4145 11.7422 14.5079 11.235 14.514C10.391 14.552 10.135 14.561 8.002 14.561C5.869 14.561 5.613 14.552 4.769 14.514C4.26183 14.5079 3.75949 14.4145 3.284 14.238C2.93622 14.1095 2.62179 13.9045 2.364 13.638C2.09754 13.3802 1.89248 13.0658 1.764 12.718C1.58746 12.2425 1.49409 11.7402 1.488 11.233C1.45 10.389 1.441 10.133 1.441 8C1.441 5.867 1.45 5.611 1.488 4.767C1.49409 4.25983 1.58746 3.75749 1.764 3.282C1.89248 2.93422 2.09754 2.61979 2.364 2.362C2.62179 2.09554 2.93622 1.89048 3.284 1.762C3.75949 1.58546 4.26183 1.49209 4.769 1.486C5.613 1.448 5.869 1.439 8.002 1.439L8 1.441ZM8 0C5.827 0 5.555 0.009 4.7 0.048C4.03696 0.0614835 3.381 0.187265 2.76 0.42C2.22596 0.620558 1.74231 0.9356 1.343 1.343C0.9356 1.74231 0.620558 2.22596 0.42 2.76C0.187265 3.381 0.0614835 4.03696 0.048 4.7C0.009 5.555 0 5.827 0 8C0 10.173 0.009 10.445 0.048 11.3C0.0614835 11.963 0.187265 12.619 0.42 13.24C0.620558 13.774 0.9356 14.2577 1.343 14.657C1.74231 15.0644 2.22596 15.3794 2.76 15.58C3.38163 15.813 4.03828 15.9387 4.702 15.952C5.555 15.991 5.827 16 8 16C10.173 16 10.445 15.991 11.3 15.952C11.9637 15.9387 12.6204 15.813 13.242 15.58C13.7734 15.3743 14.256 15.0599 14.659 14.657C15.0619 14.254 15.3763 13.7714 15.582 13.24C15.815 12.6184 15.9407 11.9617 15.954 11.298C15.993 10.445 16.002 10.173 16.002 7.998C16.002 5.823 15.993 5.553 15.954 4.698C15.9397 4.03552 15.8132 3.38025 15.58 2.76C15.3794 2.22596 15.0644 1.74231 14.657 1.343C14.2577 0.9356 13.774 0.620558 13.24 0.42C12.619 0.187265 11.963 0.0614835 11.3 0.048C10.445 0.009 10.173 0 8 0ZM7.99997 3.892C7.18748 3.892 6.39324 4.13293 5.71769 4.58432C5.04213 5.03571 4.5156 5.6773 4.20467 6.42793C3.89375 7.17857 3.8124 8.00455 3.9709 8.80143C4.12941 9.5983 4.52066 10.3303 5.09517 10.9048C5.66969 11.4793 6.40166 11.8706 7.19854 12.0291C7.99541 12.1876 8.82139 12.1062 9.57203 11.7953C10.3227 11.4844 10.9643 10.9578 11.4156 10.2823C11.867 9.60672 12.108 8.81248 12.108 8C12.108 7.46053 12.0017 6.92634 11.7953 6.42793C11.5888 5.92953 11.2862 5.47667 10.9048 5.0952C10.5233 4.71374 10.0704 4.41115 9.57203 4.2047C9.07363 3.99825 8.53944 3.892 7.99997 3.892ZM7.99997 10.667C7.47249 10.667 6.95685 10.5106 6.51826 10.2175C6.07968 9.92447 5.73784 9.50795 5.53598 9.02061C5.33412 8.53328 5.28131 7.99704 5.38422 7.47969C5.48712 6.96235 5.74113 6.48713 6.11412 6.11414C6.4871 5.74116 6.96232 5.48715 7.47966 5.38424C7.99701 5.28134 8.53326 5.33415 9.02059 5.53601C9.50792 5.73787 9.92445 6.07971 10.2175 6.51829C10.5106 6.95688 10.667 7.47252 10.667 8C10.667 8.70733 10.386 9.38569 9.88582 9.88585C9.38566 10.386 8.7073 10.667 7.99997 10.667ZM13.23 3.73C13.23 4.26019 12.8002 4.69 12.27 4.69C11.7398 4.69 11.31 4.26019 11.31 3.73C11.31 3.19981 11.7398 2.77 12.27 2.77C12.8002 2.77 13.23 3.19981 13.23 3.73Z" fill="white"/>
</svg>
