<svg width="15" height="15" viewBox="0 0 15 15" fill="none" xmlns="http://www.w3.org/2000/svg">
<path d="M3.28982 14.8696H0.263592V4.95682H3.42139V14.8696H3.28982ZM1.84249 3.65251C1.35711 3.64251 0.894413 3.44692 0.551122 3.10661C0.207831 2.76631 0.0105224 2.30763 0.000442 1.82647C-0.00494843 1.58521 0.0390139 1.34537 0.129677 1.12141C0.220341 0.897447 0.355827 0.694012 0.527963 0.523372C0.700099 0.352733 0.905319 0.218425 1.13124 0.12855C1.35717 0.0386747 1.59912 -0.0049054 1.84249 0.000438156C2.08587 -0.0049054 2.32782 0.0386747 2.55374 0.12855C2.77967 0.218425 2.98489 0.352733 3.15702 0.523372C3.32916 0.694012 3.46465 0.897447 3.55531 1.12141C3.64597 1.34537 3.68993 1.58521 3.68454 1.82647C3.63104 2.29248 3.41977 2.72675 3.08522 3.05839C2.75066 3.39003 2.31259 3.59947 1.84249 3.65251ZM15 14.8696H11.8422V10.0436C11.8422 8.86974 11.8422 7.435 10.2633 7.435C8.6844 7.435 8.42125 8.73931 8.42125 10.0436V15H5.26344V4.95682H8.28967V6.26112C8.58429 5.76514 9.00908 5.35764 9.51881 5.08201C10.0286 4.80639 10.6042 4.67297 11.1843 4.69595C14.3421 4.69595 14.8684 6.78285 14.8684 9.39147V14.8696H15Z" fill="white"/>
</svg>
